<?xml version="1.0" encoding="utf-8"?>
<!-- Generator: Adobe Illustrator 21.0.2, SVG Export Plug-In . SVG Version: 6.00 Build 0)  -->
<svg version="1.1" id="Layer_1" xmlns="http://www.w3.org/2000/svg" xmlns:xlink="http://www.w3.org/1999/xlink" x="0px" y="0px"
	 viewBox="0 0 612 612" style="enable-background:new 0 0 612 612;" xml:space="preserve">
<style type="text/css">
	.st0{fill:none;stroke:#666666;stroke-miterlimit:10;}
	.st1{fill:#666666;}
	.st2{fill:#666666;stroke:#666666;stroke-miterlimit:10;}
	.st3{fill:#4D4D4D;}
	.st4{fill:none;stroke:#CE3A3A;stroke-width:9;stroke-linecap:round;stroke-miterlimit:10;}
	.st5{fill:none;stroke:#5772BC;stroke-width:9;stroke-linecap:round;stroke-miterlimit:10;}
	.st6{fill:none;stroke:#7227FD;stroke-width:9;stroke-linecap:round;stroke-miterlimit:10;}
	.st7{fill:#CE3A3A;}
	.st8{fill:#5772BC;}
	.st9{fill:#7227FD;}
</style>
<g>
	<line class="st0" x1="63.5" y1="493.5" x2="63.5" y2="22.5"/>
	<line class="st1" x1="63.5" y1="493.5" x2="63.5" y2="22.5"/>
</g>
<line class="st2" x1="63.5" y1="493.5" x2="534.5" y2="493.5"/>
<polygon class="st2" points="63.3,10.9 56.5,22.6 70,22.6 "/>
<polygon class="st2" points="546,493.7 534.4,486.9 534.4,500.4 "/>
<g>
	<path class="st3" d="M226.7,516.1v-15.6h5.1c1.6,0,2.9,0.4,3.8,1.1c0.9,0.7,1.4,1.8,1.4,3.2c0,0.7-0.2,1.3-0.7,1.9s-1,0.9-1.7,1.2
		c0.9,0.2,1.7,0.7,2.2,1.4c0.5,0.7,0.8,1.6,0.8,2.5c0,1.4-0.5,2.5-1.4,3.3c-0.9,0.8-2.2,1.1-3.8,1.1H226.7z M228.8,507.2h3.4
		c0.8,0,1.4-0.2,1.9-0.6s0.7-1,0.7-1.8c0-0.8-0.3-1.5-0.8-1.9c-0.5-0.4-1.3-0.6-2.3-0.6h-3V507.2z M228.8,508.8v5.6h3.6
		c1,0,1.7-0.2,2.2-0.7s0.8-1.1,0.8-2c0-0.9-0.2-1.6-0.7-2.1c-0.4-0.5-1.1-0.8-2.1-0.8H228.8z"/>
	<path class="st3" d="M249.2,512.1h-6.5l-1.5,4H239l6-15.6h1.8l5.9,15.6h-2.1L249.2,512.1z M243.3,510.4h5.2l-2.6-7.1h-0.1
		L243.3,510.4z"/>
	<path class="st3" d="M254.9,516.1v-15.6h4.8c2,0,3.7,0.6,4.9,1.9c1.2,1.2,1.8,2.9,1.8,4.8v2.1c0,2-0.6,3.6-1.8,4.8
		c-1.2,1.2-2.9,1.9-4.9,1.9H254.9z M257,502.2v12.2h2.7c1.4,0,2.6-0.5,3.4-1.4s1.2-2.2,1.2-3.6v-2.1c0-1.5-0.4-2.7-1.2-3.6
		s-2-1.4-3.4-1.4H257z"/>
	<path class="st3" d="M277.5,512.1H271l-1.5,4h-2.1l6-15.6h1.8l5.9,15.6H279L277.5,512.1z M271.6,510.4h5.2l-2.6-7.1h-0.1
		L271.6,510.4z"/>
	<path class="st3" d="M291.7,512.2c0-0.7-0.3-1.3-0.8-1.8c-0.5-0.5-1.5-0.9-2.8-1.2c-1.6-0.4-2.9-1-3.9-1.7
		c-0.9-0.8-1.4-1.7-1.4-2.9c0-1.2,0.5-2.2,1.5-3c1-0.8,2.3-1.2,3.9-1.2c1.7,0,3.1,0.5,4.1,1.4c1,0.9,1.5,2,1.5,3.2l0,0.1h-2
		c0-0.9-0.3-1.6-0.9-2.2c-0.6-0.6-1.5-0.8-2.6-0.8c-1,0-1.8,0.2-2.4,0.7c-0.6,0.5-0.8,1.1-0.8,1.9c0,0.7,0.3,1.2,0.9,1.7
		c0.6,0.5,1.6,0.8,2.9,1.2c1.6,0.4,2.9,1,3.7,1.8c0.9,0.8,1.3,1.8,1.3,2.9c0,1.3-0.5,2.3-1.5,3s-2.4,1.1-4,1.1
		c-1.6,0-2.9-0.4-4.1-1.3s-1.8-2-1.7-3.4l0-0.1h2c0,1,0.4,1.8,1.1,2.3s1.6,0.8,2.7,0.8c1.1,0,1.9-0.2,2.5-0.7
		C291.4,513.6,291.7,513,291.7,512.2z"/>
	<path class="st3" d="M305.3,512.2c0-0.7-0.3-1.3-0.8-1.8c-0.5-0.5-1.5-0.9-2.8-1.2c-1.6-0.4-2.9-1-3.9-1.7
		c-0.9-0.8-1.4-1.7-1.4-2.9c0-1.2,0.5-2.2,1.5-3c1-0.8,2.3-1.2,3.9-1.2c1.7,0,3.1,0.5,4.1,1.4c1,0.9,1.5,2,1.5,3.2l0,0.1h-2
		c0-0.9-0.3-1.6-0.9-2.2c-0.6-0.6-1.5-0.8-2.6-0.8c-1,0-1.8,0.2-2.4,0.7c-0.6,0.5-0.8,1.1-0.8,1.9c0,0.7,0.3,1.2,0.9,1.7
		c0.6,0.5,1.6,0.8,2.9,1.2c1.6,0.4,2.9,1,3.7,1.8c0.9,0.8,1.3,1.8,1.3,2.9c0,1.3-0.5,2.3-1.5,3s-2.4,1.1-4,1.1
		c-1.6,0-2.9-0.4-4.1-1.3c-1.2-0.8-1.8-2-1.7-3.4l0-0.1h2c0,1,0.4,1.8,1.1,2.3s1.6,0.8,2.7,0.8c1.1,0,1.9-0.2,2.5-0.7
		C305,513.6,305.3,513,305.3,512.2z"/>
	<path class="st3" d="M319.7,508.9h-7.1v5.6h8.2v1.7h-10.3v-15.6h10.2v1.7h-8.1v5h7.1V508.9z"/>
	<path class="st3" d="M325.4,509.4v6.7h-2.1v-15.5h5.6c1.7,0,3,0.4,3.9,1.1c0.9,0.8,1.3,1.9,1.3,3.3c0,0.8-0.2,1.5-0.6,2.1
		c-0.4,0.6-1,1.1-1.8,1.4c0.9,0.3,1.5,0.7,1.8,1.4c0.4,0.6,0.6,1.4,0.6,2.3v1.5c0,0.5,0.1,0.9,0.2,1.3c0.1,0.4,0.3,0.7,0.6,0.9v0.3
		h-2.2c-0.3-0.2-0.5-0.6-0.5-1.1c-0.1-0.5-0.1-1-0.1-1.5v-1.4c0-0.8-0.2-1.5-0.7-2c-0.5-0.5-1.2-0.8-2-0.8H325.4z M325.4,507.7h3.3
		c1.2,0,2-0.2,2.6-0.7c0.5-0.5,0.8-1.1,0.8-2.1c0-0.9-0.3-1.6-0.8-2c-0.5-0.5-1.3-0.7-2.4-0.7h-3.5V507.7z"/>
	<path class="st3" d="M342,508.5l4.1-7.9h2.4l-5.5,10.1v5.5h-2.1v-5.6l-5.4-9.9h2.4L342,508.5z"/>
</g>
<g>
	<path class="st3" d="M49.9,305.2c1.9,0,3.5,0.6,4.7,1.8c1.3,1.2,1.9,2.7,1.9,4.6c0,1.8-0.6,3.3-1.9,4.4c-1.3,1.1-2.8,1.7-4.7,1.7
		h-2.8c-1.9,0-3.5-0.6-4.7-1.7s-1.9-2.6-1.9-4.4c0-1.9,0.6-3.4,1.9-4.6c1.3-1.2,2.8-1.8,4.7-1.8H49.9z M47.2,307.3
		c-1.4,0-2.6,0.4-3.5,1.2c-0.9,0.8-1.4,1.8-1.4,3.1c0,1.2,0.5,2.2,1.4,2.9c0.9,0.7,2.1,1.1,3.5,1.1h2.8c1.4,0,2.6-0.4,3.5-1.1
		c0.9-0.7,1.4-1.7,1.4-2.9c0-1.3-0.5-2.3-1.4-3.1c-0.9-0.8-2.1-1.1-3.5-1.1H47.2z"/>
	<path class="st3" d="M50.1,299.9h6.2v2.1H40.8v-5.9c0-1.7,0.4-2.9,1.3-3.9s2-1.4,3.4-1.4c1.4,0,2.5,0.5,3.4,1.4s1.3,2.2,1.3,3.9
		V299.9z M48.4,299.9v-3.8c0-1.1-0.3-1.8-0.8-2.4s-1.3-0.8-2.1-0.8s-1.6,0.3-2.2,0.8s-0.9,1.3-0.9,2.4v3.8H48.4z"/>
	<path class="st3" d="M42.4,277.5v5h13.9v2.1H42.4v5h-1.7v-12.1H42.4z"/>
	<path class="st3" d="M56.3,273v2.1H40.8V273H56.3z"/>
	<path class="st3" d="M40.8,266.3l12.6-5v-0.1l-12.6-5v-2.7h15.6v2.1h-6.2l-6.3-0.2l0,0.1l12.5,5v1.4l-12.5,5l0,0.1l6.3-0.2h6.2v2.1
		H40.8V266.3z"/>
	<path class="st3" d="M56.3,247.6v2.1H40.8v-2.1H56.3z"/>
	<path class="st3" d="M54.7,242.1v-8.7h1.7v11.1h-1.6l-12.3-8.3v8.2h-1.7v-10.6h1.5L54.7,242.1z"/>
	<path class="st3" d="M52.3,222v6.5l4,1.5v2.1l-15.6-6v-1.8l15.6-5.9v2.1L52.3,222z M50.6,227.8v-5.2l-7.1,2.6v0.1L50.6,227.8z"/>
	<path class="st3" d="M42.4,205.7v5h13.9v2.1H42.4v5h-1.7v-12.1H42.4z"/>
	<path class="st3" d="M56.3,201.2v2.1H40.8v-2.1H56.3z"/>
	<path class="st3" d="M49.9,185.4c1.9,0,3.5,0.6,4.7,1.8c1.3,1.2,1.9,2.7,1.9,4.6c0,1.8-0.6,3.3-1.9,4.4c-1.3,1.1-2.8,1.7-4.7,1.7
		h-2.8c-1.9,0-3.5-0.6-4.7-1.7s-1.9-2.6-1.9-4.4c0-1.9,0.6-3.4,1.9-4.6c1.3-1.2,2.8-1.8,4.7-1.8H49.9z M47.2,187.5
		c-1.4,0-2.6,0.4-3.5,1.2c-0.9,0.8-1.4,1.8-1.4,3.1c0,1.2,0.5,2.2,1.4,2.9c0.9,0.7,2.1,1.1,3.5,1.1h2.8c1.4,0,2.6-0.4,3.5-1.1
		c0.9-0.7,1.4-1.7,1.4-2.9c0-1.3-0.5-2.3-1.4-3.1c-0.9-0.8-2.1-1.1-3.5-1.1H47.2z"/>
	<path class="st3" d="M56.3,170.5v2.1l-12,7.5l0,0.1h12v2.1H40.8v-2.1l12-7.5l0-0.1h-12v-2.1H56.3z"/>
</g>
<path class="st4" d="M67.5,479.2C67.5,479.2,222,436,222,20"/>
<path class="st5" d="M70,487c0,0,51-173,464-173"/>
<path class="st6" d="M66.5,487.5c0,0,213,7,249-210s98-153,98-153s61,35-17,109c0,0-37,25,7,34s60-19,60-19s62-76,105-194"/>
<g>
	<path class="st7" d="M90.3,563.3v4.3h-2.4v-11.7h4.7c1.3,0,2.4,0.3,3.2,1s1.2,1.6,1.2,2.7c0,1.1-0.4,2-1.2,2.7
		c-0.8,0.7-1.8,1-3.2,1H90.3z M90.3,561.5h2.3c0.7,0,1.2-0.2,1.5-0.5c0.3-0.4,0.5-0.8,0.5-1.4c0-0.6-0.2-1-0.5-1.4
		c-0.3-0.4-0.8-0.6-1.5-0.6h-2.3V561.5z"/>
	<path class="st7" d="M103.6,565h-4.1l-0.8,2.5h-2.4l4-11.7h2.4l4,11.7h-2.4L103.6,565z M100.1,563.2h3l-1.5-4.6h0L100.1,563.2z"/>
	<path class="st7" d="M110.2,562.8v4.7h-2.4v-11.7h4.4c1.3,0,2.4,0.3,3.1,0.9c0.8,0.6,1.1,1.5,1.1,2.5c0,0.6-0.2,1.1-0.5,1.6
		c-0.3,0.4-0.8,0.8-1.4,1.1c0.7,0.2,1.2,0.5,1.5,1c0.3,0.5,0.5,1.1,0.5,1.8v0.9c0,0.3,0,0.7,0.1,1c0.1,0.4,0.2,0.6,0.5,0.8v0.2h-2.4
		c-0.2-0.2-0.4-0.5-0.4-0.9c-0.1-0.4-0.1-0.8-0.1-1.1v-0.8c0-0.6-0.2-1-0.5-1.4c-0.3-0.3-0.8-0.5-1.3-0.5H110.2z M110.2,561h2
		c0.7,0,1.2-0.1,1.5-0.4c0.3-0.3,0.5-0.7,0.5-1.2c0-0.5-0.2-1-0.5-1.3c-0.3-0.3-0.8-0.5-1.4-0.5h-2.1V561z"/>
	<path class="st7" d="M125.1,565H121l-0.8,2.5h-2.4l4-11.7h2.4l4,11.7h-2.4L125.1,565z M121.5,563.2h3l-1.5-4.6h0L121.5,563.2z"/>
	<path class="st7" d="M129.3,567.5v-11.7h4c1.4,0,2.5,0.3,3.2,0.8s1.2,1.3,1.2,2.4c0,0.5-0.1,1-0.4,1.5s-0.7,0.7-1.3,1
		c0.7,0.2,1.2,0.5,1.6,1c0.4,0.5,0.5,1.1,0.5,1.7c0,1.1-0.4,2-1.1,2.5s-1.8,0.9-3.1,0.9H129.3z M131.7,560.7h1.7
		c0.6,0,1.1-0.1,1.5-0.4s0.5-0.6,0.5-1.1c0-0.5-0.2-0.9-0.5-1.2c-0.3-0.3-0.8-0.4-1.5-0.4h-1.6V560.7z M131.7,562.3v3.4h2.2
		c0.6,0,1.1-0.1,1.4-0.4c0.3-0.3,0.5-0.7,0.5-1.2c0-0.6-0.1-1-0.4-1.3s-0.7-0.5-1.3-0.5H131.7z"/>
	<path class="st7" d="M149.4,562.7c0,1.4-0.5,2.6-1.4,3.6c-0.9,0.9-2.1,1.4-3.5,1.4c-1.4,0-2.6-0.5-3.5-1.4
		c-0.9-0.9-1.4-2.1-1.4-3.6v-2.1c0-1.4,0.4-2.6,1.3-3.6c0.9-0.9,2.1-1.4,3.5-1.4c1.5,0,2.6,0.5,3.6,1.4s1.4,2.1,1.4,3.6V562.7z
		 M147,560.6c0-0.9-0.2-1.7-0.7-2.3s-1.1-0.9-1.9-0.9c-0.8,0-1.4,0.3-1.9,0.9s-0.7,1.3-0.7,2.3v2.1c0,0.9,0.2,1.7,0.7,2.3
		s1.1,0.9,1.9,0.9c0.8,0,1.4-0.3,1.9-0.9s0.7-1.3,0.7-2.3V560.6z"/>
	<path class="st7" d="M153.6,565.7h5.2v1.8h-7.6v-11.7h2.4V565.7z"/>
	<path class="st7" d="M162.6,567.5h-2.4v-11.7h2.4V567.5z"/>
	<path class="st7" d="M173.8,563.5L173.8,563.5c0,1.3-0.3,2.3-1.1,3.1s-1.9,1.1-3.3,1.1c-1.4,0-2.6-0.5-3.4-1.4
		c-0.9-0.9-1.3-2.1-1.3-3.5v-2.3c0-1.4,0.4-2.6,1.3-3.5s2-1.4,3.4-1.4c1.5,0,2.6,0.4,3.4,1.1s1.2,1.8,1.2,3l0,0h-2.3
		c0-0.8-0.2-1.4-0.6-1.8c-0.4-0.4-0.9-0.6-1.7-0.6c-0.7,0-1.3,0.3-1.7,0.9s-0.6,1.3-0.6,2.2v2.3c0,0.9,0.2,1.6,0.7,2.2
		c0.4,0.6,1,0.9,1.8,0.9c0.7,0,1.3-0.2,1.6-0.6c0.4-0.4,0.5-1,0.5-1.8H173.8z"/>
</g>
<g>
	<path class="st8" d="M260.3,565.7h5.2v1.8h-7.6v-11.7h2.4V565.7z"/>
	<path class="st8" d="M275.8,562.7c0,1.4-0.5,2.6-1.4,3.6c-0.9,0.9-2.1,1.4-3.5,1.4c-1.4,0-2.6-0.5-3.5-1.4
		c-0.9-0.9-1.4-2.1-1.4-3.6v-2.1c0-1.4,0.4-2.6,1.3-3.6c0.9-0.9,2.1-1.4,3.5-1.4c1.5,0,2.6,0.5,3.6,1.4s1.4,2.1,1.4,3.6V562.7z
		 M273.4,560.6c0-0.9-0.2-1.7-0.7-2.3s-1.1-0.9-1.9-0.9c-0.8,0-1.4,0.3-1.9,0.9s-0.7,1.3-0.7,2.3v2.1c0,0.9,0.2,1.7,0.7,2.3
		s1.1,0.9,1.9,0.9c0.8,0,1.4-0.3,1.9-0.9s0.7-1.3,0.7-2.3V560.6z"/>
	<path class="st8" d="M286.6,565.9c-0.3,0.5-0.9,0.9-1.6,1.2c-0.7,0.4-1.7,0.5-2.8,0.5c-1.4,0-2.6-0.4-3.5-1.3s-1.4-2-1.4-3.5v-2.4
		c0-1.4,0.4-2.6,1.3-3.5c0.9-0.9,2-1.3,3.4-1.3c1.4,0,2.5,0.3,3.3,1c0.8,0.7,1.1,1.6,1.2,2.7l0,0h-2.2c0-0.6-0.2-1.1-0.6-1.5
		s-0.9-0.5-1.6-0.5c-0.7,0-1.3,0.3-1.7,0.8c-0.4,0.6-0.7,1.3-0.7,2.1v2.5c0,0.9,0.2,1.6,0.7,2.2s1.1,0.8,1.8,0.8
		c0.5,0,1-0.1,1.3-0.2c0.3-0.1,0.6-0.3,0.8-0.4v-2.2h-2.1v-1.6h4.4V565.9z"/>
	<path class="st8" d="M295,565h-4.1l-0.8,2.5h-2.4l4-11.7h2.4l4,11.7h-2.4L295,565z M291.4,563.2h3l-1.5-4.6h0L291.4,563.2z"/>
	<path class="st8" d="M301.6,562.8v4.7h-2.4v-11.7h4.4c1.3,0,2.4,0.3,3.1,0.9c0.8,0.6,1.1,1.5,1.1,2.5c0,0.6-0.2,1.1-0.5,1.6
		c-0.3,0.4-0.8,0.8-1.4,1.1c0.7,0.2,1.2,0.5,1.5,1c0.3,0.5,0.5,1.1,0.5,1.8v0.9c0,0.3,0,0.7,0.1,1c0.1,0.4,0.2,0.6,0.5,0.8v0.2h-2.4
		c-0.2-0.2-0.4-0.5-0.4-0.9c-0.1-0.4-0.1-0.8-0.1-1.1v-0.8c0-0.6-0.2-1-0.5-1.4c-0.3-0.3-0.8-0.5-1.3-0.5H301.6z M301.6,561h2
		c0.7,0,1.2-0.1,1.5-0.4c0.3-0.3,0.5-0.7,0.5-1.2c0-0.5-0.2-1-0.5-1.3c-0.3-0.3-0.8-0.5-1.4-0.5h-2.1V561z"/>
	<path class="st8" d="M312.6,567.5h-2.4v-11.7h2.4V567.5z"/>
	<path class="st8" d="M323.1,557.6h-3.3v9.9h-2.4v-9.9h-3.3v-1.8h9V557.6z"/>
	<path class="st8" d="M333.9,567.5h-2.3v-4.9h-4.8v4.9h-2.4v-11.7h2.4v5h4.8v-5h2.3V567.5z"/>
	<path class="st8" d="M339.1,555.8l3,8.6h0l3-8.6h3.1v11.7h-2.4V564l0.2-5.2l0,0l-3.1,8.7h-1.6l-3.1-8.7l0,0l0.2,5.1v3.5h-2.4v-11.7
		H339.1z"/>
	<path class="st8" d="M353,567.5h-2.4v-11.7h2.4V567.5z"/>
	<path class="st8" d="M364.2,563.5L364.2,563.5c0,1.3-0.3,2.3-1.1,3.1c-0.8,0.7-1.9,1.1-3.3,1.1c-1.4,0-2.6-0.5-3.4-1.4
		c-0.9-0.9-1.3-2.1-1.3-3.5v-2.3c0-1.4,0.4-2.6,1.3-3.5s2-1.4,3.4-1.4c1.4,0,2.6,0.4,3.4,1.1s1.2,1.8,1.2,3l0,0h-2.3
		c0-0.8-0.2-1.4-0.6-1.8c-0.4-0.4-0.9-0.6-1.7-0.6c-0.7,0-1.3,0.3-1.7,0.9c-0.4,0.6-0.6,1.3-0.6,2.2v2.3c0,0.9,0.2,1.6,0.7,2.2
		c0.4,0.6,1,0.9,1.8,0.9c0.7,0,1.3-0.2,1.6-0.6c0.4-0.4,0.5-1,0.5-1.8H364.2z"/>
</g>
<g>
	<path class="st9" d="M440.3,563.3v4.3h-2.4v-11.7h4.7c1.3,0,2.4,0.3,3.2,1s1.2,1.6,1.2,2.7c0,1.1-0.4,2-1.2,2.7
		c-0.8,0.7-1.8,1-3.2,1H440.3z M440.3,561.5h2.3c0.7,0,1.2-0.2,1.5-0.5c0.3-0.4,0.5-0.8,0.5-1.4c0-0.6-0.2-1-0.5-1.4
		c-0.3-0.4-0.8-0.6-1.5-0.6h-2.3V561.5z"/>
	<path class="st9" d="M453.6,565h-4.1l-0.8,2.5h-2.4l4-11.7h2.4l4,11.7h-2.4L453.6,565z M450.1,563.2h3l-1.5-4.6h0L450.1,563.2z"/>
	<path class="st9" d="M460.2,562.8v4.7h-2.4v-11.7h4.4c1.3,0,2.4,0.3,3.1,0.9c0.8,0.6,1.1,1.5,1.1,2.5c0,0.6-0.2,1.1-0.5,1.6
		c-0.3,0.4-0.8,0.8-1.4,1.1c0.7,0.2,1.2,0.5,1.5,1c0.3,0.5,0.5,1.1,0.5,1.8v0.9c0,0.3,0,0.7,0.1,1c0.1,0.4,0.2,0.6,0.5,0.8v0.2h-2.4
		c-0.2-0.2-0.4-0.5-0.4-0.9c-0.1-0.4-0.1-0.8-0.1-1.1v-0.8c0-0.6-0.2-1-0.5-1.4c-0.3-0.3-0.8-0.5-1.3-0.5H460.2z M460.2,561h2
		c0.7,0,1.2-0.1,1.5-0.4c0.3-0.3,0.5-0.7,0.5-1.2c0-0.5-0.2-1-0.5-1.3c-0.3-0.3-0.8-0.5-1.4-0.5h-2.1V561z"/>
	<path class="st9" d="M471.8,555.8l3,8.6h0l3-8.6h3.1v11.7h-2.4V564l0.2-5.2l0,0l-3.1,8.7h-1.6l-3.1-8.7l0,0l0.2,5.1v3.5h-2.4v-11.7
		H471.8z"/>
	<path class="st9" d="M489.5,565h-4.1l-0.8,2.5h-2.4l4-11.7h2.4l4,11.7h-2.4L489.5,565z M485.9,563.2h3l-1.5-4.6h0L485.9,563.2z"/>
	<path class="st9" d="M501.8,557.6h-3.3v9.9h-2.4v-9.9h-3.3v-1.8h9V557.6z"/>
	<path class="st9" d="M512.3,562.7c0,1.4-0.5,2.6-1.4,3.6c-0.9,0.9-2.1,1.4-3.5,1.4c-1.4,0-2.6-0.5-3.5-1.4
		c-0.9-0.9-1.4-2.1-1.4-3.6v-2.1c0-1.4,0.5-2.6,1.3-3.6c0.9-0.9,2.1-1.4,3.5-1.4c1.5,0,2.6,0.5,3.6,1.4c0.9,0.9,1.4,2.1,1.4,3.6
		V562.7z M510,560.6c0-0.9-0.2-1.7-0.7-2.3c-0.5-0.6-1.1-0.9-1.9-0.9c-0.8,0-1.4,0.3-1.9,0.9c-0.4,0.6-0.7,1.3-0.7,2.3v2.1
		c0,0.9,0.2,1.7,0.7,2.3s1.1,0.9,1.9,0.9c0.8,0,1.4-0.3,1.9-0.9s0.7-1.3,0.7-2.3V560.6z"/>
	<path class="st9" d="M523.6,567.5h-2.3l-4.7-8l0,0v8h-2.4v-11.7h2.4l4.7,8l0,0v-8h2.3V567.5z"/>
	<path class="st9" d="M528.3,567.5H526v-11.7h2.4V567.5z"/>
	<path class="st9" d="M539.5,563.5L539.5,563.5c0,1.3-0.3,2.3-1.1,3.1s-1.9,1.1-3.3,1.1c-1.4,0-2.6-0.5-3.4-1.4
		c-0.9-0.9-1.3-2.1-1.3-3.5v-2.3c0-1.4,0.4-2.6,1.3-3.5s2-1.4,3.4-1.4c1.5,0,2.6,0.4,3.4,1.1s1.2,1.8,1.2,3l0,0h-2.3
		c0-0.8-0.2-1.4-0.6-1.8c-0.4-0.4-0.9-0.6-1.7-0.6c-0.7,0-1.3,0.3-1.7,0.9s-0.6,1.3-0.6,2.2v2.3c0,0.9,0.2,1.6,0.7,2.2
		c0.4,0.6,1,0.9,1.8,0.9c0.7,0,1.3-0.2,1.6-0.6c0.4-0.4,0.5-1,0.5-1.8H539.5z"/>
</g>
<circle class="st8" cx="241" cy="562" r="10"/>
<circle class="st7" cx="72" cy="562" r="10"/>
<circle class="st9" cx="421" cy="562" r="10"/>
<polygon class="st7" points="222,6 209.9,27 234.1,27 "/>
<polygon class="st9" points="576.5,35.7 558.3,51.8 581.3,59.5 "/>
<polygon class="st8" points="550.9,311.2 528.5,301.8 531.6,325.9 "/>
</svg>
