<?xml version="1.0" encoding="utf-8"?>
<!-- Generator: Adobe Illustrator 21.0.2, SVG Export Plug-In . SVG Version: 6.00 Build 0)  -->
<svg version="1.1" id="Layer_1" xmlns="http://www.w3.org/2000/svg" xmlns:xlink="http://www.w3.org/1999/xlink" x="0px" y="0px"
	 viewBox="0 0 612 612" style="enable-background:new 0 0 612 612;" xml:space="preserve">
<style type="text/css">
	.st0{fill:none;stroke:#AAAAAA;stroke-width:40;stroke-miterlimit:10;}
	.st1{fill:#AAAAAA;}
	.st2{fill:#7227FD;}
	.st3{fill:#5F34C6;}
	.st4{opacity:0.35;fill:#7227FD;}
	.st5{fill:#FFFFFF;}
</style>
<g>
	<line class="st0" x1="266.1" y1="320.9" x2="210.2" y2="468.6"/>
	<polygon class="st1" points="191.6,510.9 184.4,440 249.4,469.2 	"/>
</g>
<g>
	<line class="st0" x1="325.7" y1="306.3" x2="471.5" y2="366.9"/>
	<polygon class="st1" points="513.2,386.9 442,391.7 473.4,327.7 	"/>
</g>
<g>
	<line class="st0" x1="328" y1="271.1" x2="445" y2="165.1"/>
	<polygon class="st1" points="480.9,136 454.9,202.4 410.4,146.7 	"/>
</g>
<g>
	<line class="st0" x1="240" y1="246" x2="134" y2="129"/>
	<polygon class="st1" points="104.8,93.1 171.3,119.1 115.6,163.6 	"/>
</g>
<circle class="st2" cx="285" cy="284" r="60"/>
<circle class="st3" cx="285" cy="284" r="76"/>
<circle class="st4" cx="285" cy="284" r="57"/>
<g>
	<path class="st5" d="M282.7,284.6H277V306h-10.3v-51.2H277v20.9h4.5l13.6-20.9h12.6l-17.2,23.8L309,306h-12.5L282.7,284.6z"/>
</g>
<circle class="st2" cx="498" cy="131" r="28.4"/>
<circle class="st3" cx="498" cy="131" r="36"/>
<circle class="st4" cx="498" cy="131" r="27"/>
<g>
	<path class="st5" d="M496.9,131.3h-2.7v10.1h-4.9v-24.2h4.9v9.9h2.1l6.4-9.9h5.9l-8.2,11.3l8.8,13h-5.9L496.9,131.3z"/>
</g>
<circle class="st2" cx="517" cy="386" r="28.4"/>
<circle class="st3" cx="517" cy="386" r="36"/>
<circle class="st4" cx="517" cy="386" r="27"/>
<g>
	<path class="st5" d="M515.9,386.3h-2.7v10.1h-4.9v-24.2h4.9v9.9h2.1l6.4-9.9h5.9l-8.2,11.3l8.8,13h-5.9L515.9,386.3z"/>
</g>
<circle class="st2" cx="185" cy="526" r="28.4"/>
<circle class="st3" cx="185" cy="526" r="36"/>
<circle class="st4" cx="185" cy="526" r="27"/>
<g>
	<path class="st5" d="M183.9,526.3h-2.7v10.1h-4.9v-24.2h4.9v9.9h2.1l6.4-9.9h5.9l-8.2,11.3l8.8,13h-5.9L183.9,526.3z"/>
</g>
<circle class="st2" cx="98" cy="85" r="28.4"/>
<circle class="st3" cx="98" cy="85" r="36"/>
<circle class="st4" cx="98" cy="85" r="27"/>
<g>
	<path class="st5" d="M96.9,85.3h-2.7v10.1h-4.9V71.2h4.9v9.9h2.1l6.4-9.9h5.9l-8.2,11.3l8.8,13h-5.9L96.9,85.3z"/>
</g>
<g>
	<path d="M162.3,43.5h-8.4l-1.9,5.1h-1.6l7-18.4h1.4l6.9,18.4h-1.6L162.3,43.5z M154.4,42.1h7.4l-3.7-10h-0.1L154.4,42.1z"/>
	<path d="M175.6,48.6V36.2h-2.3v-1.2h2.3v-2c0-1.4,0.3-2.4,1-3.2c0.7-0.8,1.6-1.1,2.9-1.1c0.3,0,0.6,0,0.8,0.1
		c0.3,0,0.6,0.1,0.9,0.2l-0.2,1.3c-0.2-0.1-0.4-0.1-0.6-0.1c-0.2,0-0.5,0-0.8,0c-0.8,0-1.5,0.3-1.9,0.8s-0.7,1.3-0.7,2.2v2h3.3v1.2
		h-3.3v12.4H175.6z"/>
	<path d="M191.9,46.4c-0.4,0.8-1,1.4-1.8,1.9c-0.7,0.4-1.6,0.7-2.6,0.7c-1.4,0-2.6-0.5-3.4-1.5c-0.8-1-1.2-2.5-1.2-4.6v-7.9h1.5v8
		c0,1.7,0.3,2.9,0.9,3.6c0.6,0.7,1.4,1.1,2.4,1.1c1.1,0,2.1-0.3,2.7-0.8c0.7-0.5,1.2-1.2,1.4-2.1v-9.8h1.5v13.7H192L191.9,46.4z"/>
	<path d="M199.1,48.6h-1.5V28.9h1.5V48.6z"/>
	<path d="M204.9,48.6h-1.5V28.9h1.5V48.6z"/>
	<path d="M213,44.9l0.5,1.6h0.1l4.1-11.6h1.7l-5.9,15.9c-0.4,0.9-0.8,1.7-1.4,2.4s-1.4,1-2.5,1c-0.2,0-0.4,0-0.6-0.1
		c-0.3,0-0.4-0.1-0.6-0.1l0.2-1.3c0.1,0,0.3,0,0.5,0.1c0.2,0,0.4,0,0.5,0c0.7,0,1.2-0.2,1.6-0.7c0.4-0.5,0.7-1.1,1-1.8l0.7-1.8
		l-5.3-13.5h1.7L213,44.9z"/>
	<path d="M227.5,41.9c0-2.2,0.5-3.9,1.4-5.2c0.9-1.3,2.2-2,3.9-2c1,0,1.8,0.2,2.5,0.6c0.7,0.4,1.3,1,1.7,1.7v-8.1h1.5v19.7h-1.3
		l-0.1-2c-0.5,0.7-1,1.3-1.8,1.7c-0.7,0.4-1.6,0.6-2.5,0.6c-1.6,0-2.9-0.6-3.8-1.8c-0.9-1.2-1.4-2.9-1.4-4.9V41.9z M229,42.2
		c0,1.7,0.3,3,1,4c0.7,1,1.7,1.5,3,1.5c1,0,1.8-0.2,2.4-0.7c0.7-0.4,1.2-1,1.5-1.8v-6.4c-0.3-0.8-0.8-1.4-1.5-1.9
		c-0.6-0.5-1.5-0.7-2.5-0.7c-1.3,0-2.3,0.5-3,1.6c-0.7,1.1-1,2.5-1,4.3V42.2z"/>
	<path d="M247.6,48.9c-1.7,0-3.1-0.6-4.3-1.9c-1.1-1.3-1.7-2.9-1.7-4.8v-0.7c0-2,0.6-3.6,1.7-4.9c1.1-1.3,2.5-1.9,4.1-1.9
		c1.7,0,3,0.5,4,1.6c1,1.1,1.4,2.5,1.4,4.2v1.3h-9.7v0.4c0,1.5,0.4,2.8,1.2,3.9c0.8,1,1.9,1.6,3.2,1.6c0.9,0,1.7-0.1,2.4-0.4
		c0.7-0.3,1.2-0.6,1.7-1.1l0.6,1c-0.5,0.5-1.2,1-2,1.3C249.6,48.7,248.7,48.9,247.6,48.9z M247.4,36c-1.1,0-2.1,0.4-2.8,1.3
		c-0.8,0.9-1.2,1.9-1.3,3.2l0,0.1h8v-0.4c0-1.2-0.3-2.2-1-3C249.6,36.4,248.6,36,247.4,36z"/>
	<path d="M260.9,47.6c1,0,1.9-0.3,2.7-0.9c0.8-0.6,1.2-1.4,1.2-2.4h1.3l0,0.1c0,1.3-0.5,2.3-1.5,3.2c-1.1,0.9-2.3,1.3-3.7,1.3
		c-1.9,0-3.3-0.6-4.3-1.9c-1-1.3-1.5-2.9-1.5-4.9v-0.5c0-2,0.5-3.6,1.5-4.9c1-1.3,2.5-1.9,4.3-1.9c1.5,0,2.7,0.4,3.7,1.3
		c1,0.9,1.5,2,1.4,3.5l0,0.1h-1.4c0-1.1-0.4-2-1.1-2.6c-0.7-0.7-1.6-1-2.7-1c-1.5,0-2.6,0.5-3.3,1.6s-1.1,2.4-1.1,4V42
		c0,1.6,0.3,2.9,1,4C258.3,47.1,259.4,47.6,260.9,47.6z"/>
	<path d="M274.4,48.9c-1.7,0-3.1-0.6-4.3-1.9c-1.1-1.3-1.7-2.9-1.7-4.8v-0.7c0-2,0.6-3.6,1.7-4.9c1.1-1.3,2.5-1.9,4.1-1.9
		c1.7,0,3,0.5,4,1.6c1,1.1,1.4,2.5,1.4,4.2v1.3h-9.7v0.4c0,1.5,0.4,2.8,1.2,3.9c0.8,1,1.9,1.6,3.2,1.6c0.9,0,1.7-0.1,2.4-0.4
		c0.7-0.3,1.2-0.6,1.7-1.1l0.6,1c-0.5,0.5-1.2,1-2,1.3C276.4,48.7,275.4,48.9,274.4,48.9z M274.2,36c-1.1,0-2.1,0.4-2.8,1.3
		c-0.8,0.9-1.2,1.9-1.3,3.2l0,0.1h8v-0.4c0-1.2-0.3-2.2-1-3C276.3,36.4,275.4,36,274.2,36z"/>
	<path d="M283.9,34.9l0.1,2.4c0.4-0.8,1-1.5,1.8-2c0.7-0.5,1.6-0.7,2.6-0.7c1.5,0,2.6,0.5,3.4,1.4c0.8,0.9,1.2,2.3,1.2,4.2v8.3h-1.5
		v-8.3c0-1.6-0.3-2.7-0.9-3.3c-0.6-0.7-1.4-1-2.5-1c-1.1,0-1.9,0.3-2.6,0.8s-1.2,1.3-1.4,2.2v9.6h-1.5V34.9H283.9z"/>
	<path d="M299.3,31.4v3.5h3v1.2h-3v8.9c0,0.9,0.2,1.5,0.5,1.9s0.8,0.6,1.3,0.6c0.2,0,0.5,0,0.7,0c0.2,0,0.5-0.1,0.8-0.1l0.2,1.1
		c-0.3,0.1-0.6,0.2-0.9,0.3c-0.4,0.1-0.7,0.1-1.1,0.1c-1,0-1.7-0.3-2.2-0.9s-0.8-1.6-0.8-2.9v-8.9h-2.4v-1.2h2.4v-3.5H299.3z"/>
	<path d="M311.9,36.2l-1.1-0.1c-1,0-1.7,0.3-2.3,0.8c-0.6,0.5-1,1.3-1.3,2.2v9.4h-1.5V34.9h1.3l0.2,2.3v0.2c0.4-0.8,0.9-1.5,1.6-2
		s1.5-0.7,2.4-0.7c0.2,0,0.4,0,0.6,0c0.2,0,0.3,0.1,0.4,0.1L311.9,36.2z"/>
	<path d="M323,48.6c-0.1-0.5-0.2-0.9-0.2-1.2c0-0.3-0.1-0.7-0.1-1c-0.5,0.7-1.2,1.3-2,1.8c-0.8,0.5-1.8,0.7-2.8,0.7
		c-1.3,0-2.4-0.4-3.1-1.1c-0.7-0.7-1.1-1.7-1.1-2.8c0-1.3,0.5-2.3,1.6-3c1.1-0.8,2.6-1.1,4.4-1.1h3v-1.7c0-1-0.3-1.7-0.9-2.3
		c-0.6-0.6-1.5-0.8-2.6-0.8c-1.1,0-1.9,0.3-2.6,0.8c-0.7,0.5-1,1.2-1,1.9l-1.4,0l0-0.1c-0.1-1,0.4-1.9,1.4-2.7s2.2-1.2,3.7-1.2
		c1.5,0,2.7,0.4,3.6,1.2c0.9,0.8,1.4,1.9,1.4,3.3v6.7c0,0.5,0,0.9,0.1,1.4c0.1,0.5,0.1,0.9,0.3,1.4H323z M318.1,47.5
		c1.1,0,2-0.3,2.9-0.8s1.4-1.2,1.8-2V42h-3c-1.4,0-2.5,0.3-3.3,0.9c-0.8,0.6-1.2,1.3-1.2,2.2c0,0.7,0.3,1.3,0.8,1.8
		S317.2,47.5,318.1,47.5z"/>
	<path d="M330,48.6h-1.5V28.9h1.5V48.6z"/>
	<path d="M335.9,31h-1.5v-2.1h1.5V31z M335.9,48.6h-1.5V34.9h1.5V48.6z"/>
	<path d="M341.1,47.3h8.9v1.3h-10.8v-1.1l8.2-11.3h-8v-1.3h9.9v1.1L341.1,47.3z"/>
	<path d="M357.6,48.9c-1.7,0-3.1-0.6-4.3-1.9c-1.1-1.3-1.7-2.9-1.7-4.8v-0.7c0-2,0.6-3.6,1.7-4.9s2.5-1.9,4.1-1.9c1.7,0,3,0.5,4,1.6
		c1,1.1,1.4,2.5,1.4,4.2v1.3h-9.7v0.4c0,1.5,0.4,2.8,1.2,3.9c0.8,1,1.9,1.6,3.2,1.6c0.9,0,1.7-0.1,2.4-0.4c0.7-0.3,1.2-0.6,1.7-1.1
		l0.6,1c-0.5,0.5-1.2,1-2,1.3C359.7,48.7,358.7,48.9,357.6,48.9z M357.4,36c-1.1,0-2.1,0.4-2.8,1.3c-0.8,0.9-1.2,1.9-1.3,3.2l0,0.1
		h8v-0.4c0-1.2-0.3-2.2-1-3C359.6,36.4,358.6,36,357.4,36z"/>
	<path d="M365.2,41.9c0-2.2,0.5-3.9,1.4-5.2c0.9-1.3,2.2-2,3.9-2c1,0,1.8,0.2,2.5,0.6s1.3,1,1.7,1.7v-8.1h1.5v19.7h-1.3l-0.1-2
		c-0.5,0.7-1,1.3-1.8,1.7c-0.7,0.4-1.6,0.6-2.5,0.6c-1.6,0-2.9-0.6-3.8-1.8c-0.9-1.2-1.4-2.9-1.4-4.9V41.9z M366.8,42.2
		c0,1.7,0.3,3,1,4c0.7,1,1.7,1.5,3,1.5c1,0,1.8-0.2,2.4-0.7c0.7-0.4,1.2-1,1.5-1.8v-6.4c-0.3-0.8-0.8-1.4-1.5-1.9s-1.5-0.7-2.5-0.7
		c-1.3,0-2.3,0.5-3,1.6c-0.7,1.1-1,2.5-1,4.3V42.2z"/>
	<path d="M397.5,42.2c0,2-0.5,3.7-1.4,4.9c-0.9,1.2-2.2,1.8-3.8,1.8c-1,0-1.8-0.2-2.5-0.5c-0.7-0.4-1.3-0.9-1.8-1.6v7.1h-1.5V34.9
		h1.3l0.2,2.1c0.5-0.8,1-1.3,1.8-1.8c0.7-0.4,1.6-0.6,2.5-0.6c1.6,0,2.9,0.7,3.9,2c0.9,1.3,1.4,3.1,1.4,5.2V42.2z M396,41.9
		c0-1.7-0.3-3.2-1-4.3c-0.7-1.1-1.7-1.6-3-1.6c-1,0-1.8,0.2-2.5,0.7c-0.6,0.5-1.1,1.1-1.4,1.9v6.6c0.3,0.8,0.8,1.3,1.5,1.8
		c0.7,0.4,1.5,0.6,2.4,0.6c1.3,0,2.3-0.5,3-1.5s1-2.3,1-4V41.9z"/>
	<path d="M402.6,48.6h-1.5V28.9h1.5V48.6z"/>
	<path d="M415.5,48.6c-0.1-0.5-0.2-0.9-0.2-1.2s-0.1-0.7-0.1-1c-0.5,0.7-1.2,1.3-2,1.8c-0.8,0.5-1.8,0.7-2.8,0.7
		c-1.3,0-2.4-0.4-3.1-1.1c-0.7-0.7-1.1-1.7-1.1-2.8c0-1.3,0.5-2.3,1.6-3c1.1-0.8,2.6-1.1,4.4-1.1h3v-1.7c0-1-0.3-1.7-0.9-2.3
		c-0.6-0.6-1.5-0.8-2.6-0.8c-1.1,0-1.9,0.3-2.6,0.8c-0.7,0.5-1,1.2-1,1.9l-1.4,0l0-0.1c-0.1-1,0.4-1.9,1.4-2.7s2.2-1.2,3.7-1.2
		c1.5,0,2.7,0.4,3.6,1.2c0.9,0.8,1.4,1.9,1.4,3.3v6.7c0,0.5,0,0.9,0.1,1.4s0.1,0.9,0.3,1.4H415.5z M410.5,47.5c1.1,0,2-0.3,2.9-0.8
		c0.8-0.5,1.4-1.2,1.8-2V42h-3c-1.4,0-2.5,0.3-3.3,0.9c-0.8,0.6-1.2,1.3-1.2,2.2c0,0.7,0.3,1.3,0.8,1.8S409.6,47.5,410.5,47.5z"/>
	<path d="M423.1,31.4v3.5h3v1.2h-3v8.9c0,0.9,0.2,1.5,0.5,1.9s0.8,0.6,1.3,0.6c0.2,0,0.5,0,0.7,0c0.2,0,0.5-0.1,0.8-0.1l0.2,1.1
		c-0.3,0.1-0.6,0.2-0.9,0.3s-0.7,0.1-1.1,0.1c-1,0-1.7-0.3-2.2-0.9s-0.8-1.6-0.8-2.9v-8.9h-2.4v-1.2h2.4v-3.5H423.1z"/>
	<path d="M430.4,48.6V36.2h-2.3v-1.2h2.3v-2c0-1.4,0.3-2.4,1-3.2c0.7-0.8,1.6-1.1,2.9-1.1c0.3,0,0.6,0,0.8,0.1
		c0.3,0,0.6,0.1,0.9,0.2l-0.2,1.3c-0.2-0.1-0.4-0.1-0.6-0.1c-0.2,0-0.5,0-0.8,0c-0.8,0-1.5,0.3-1.9,0.8c-0.4,0.5-0.7,1.3-0.7,2.2v2
		h3.3v1.2H432v12.4H430.4z"/>
	<path d="M437,41.6c0-2,0.6-3.7,1.7-5s2.6-1.9,4.4-1.9c1.8,0,3.3,0.6,4.4,1.9c1.1,1.3,1.7,2.9,1.7,5V42c0,2-0.5,3.7-1.6,5
		c-1.1,1.3-2.6,1.9-4.4,1.9c-1.8,0-3.3-0.6-4.4-1.9c-1.1-1.3-1.7-2.9-1.7-5V41.6z M438.5,42c0,1.6,0.4,2.9,1.2,4s1.9,1.6,3.3,1.6
		c1.4,0,2.5-0.5,3.3-1.6s1.2-2.4,1.2-4v-0.4c0-1.6-0.4-2.9-1.2-4c-0.8-1.1-1.9-1.6-3.3-1.6c-1.4,0-2.5,0.5-3.3,1.6s-1.2,2.4-1.2,4
		V42z"/>
	<path d="M458.5,36.2l-1.1-0.1c-1,0-1.7,0.3-2.3,0.8c-0.6,0.5-1,1.3-1.3,2.2v9.4h-1.5V34.9h1.3l0.2,2.3v0.2c0.4-0.8,0.9-1.5,1.6-2
		c0.7-0.5,1.5-0.7,2.4-0.7c0.2,0,0.4,0,0.6,0c0.2,0,0.3,0.1,0.4,0.1L458.5,36.2z"/>
	<path d="M462.3,34.9l0.1,2.3c0.4-0.8,1-1.4,1.8-1.9c0.7-0.4,1.6-0.7,2.6-0.7c1,0,1.9,0.3,2.6,0.8c0.7,0.5,1.2,1.3,1.5,2.3
		c0.4-1,1-1.7,1.8-2.3c0.8-0.5,1.7-0.8,2.8-0.8c1.5,0,2.6,0.5,3.4,1.5c0.8,1,1.2,2.5,1.2,4.5v8h-1.5v-8c0-1.7-0.3-2.9-0.9-3.6
		s-1.4-1-2.5-1c-1.2,0-2.1,0.4-2.7,1.1c-0.6,0.7-1,1.7-1.2,2.8c0,0.1,0,0.1,0,0.3c0,0.1,0,0.2,0,0.2v8.2h-1.5v-8
		c0-1.7-0.3-2.8-0.9-3.6c-0.6-0.7-1.4-1.1-2.5-1.1c-1.1,0-1.9,0.3-2.5,0.8c-0.6,0.5-1.1,1.3-1.3,2.2v9.6H461V34.9H462.3z"/>
	<path d="M228.3,79.7V67.2H226V66h2.3v-2c0-1.4,0.3-2.4,1-3.2c0.7-0.8,1.6-1.1,2.9-1.1c0.3,0,0.6,0,0.8,0.1c0.3,0,0.6,0.1,0.9,0.2
		l-0.2,1.3c-0.2-0.1-0.4-0.1-0.6-0.1c-0.2,0-0.5,0-0.8,0c-0.8,0-1.5,0.3-1.9,0.8s-0.7,1.3-0.7,2.2v2h3.3v1.2h-3.3v12.4H228.3z"/>
	<path d="M234.8,72.6c0-2,0.6-3.7,1.7-5s2.6-1.9,4.4-1.9c1.8,0,3.3,0.6,4.4,1.9s1.7,2.9,1.7,5V73c0,2-0.5,3.7-1.6,5
		c-1.1,1.3-2.6,1.9-4.4,1.9c-1.8,0-3.3-0.6-4.4-1.9c-1.1-1.3-1.7-2.9-1.7-5V72.6z M236.4,73c0,1.6,0.4,2.9,1.2,4
		c0.8,1.1,1.9,1.6,3.3,1.6c1.4,0,2.5-0.5,3.3-1.6s1.2-2.4,1.2-4v-0.4c0-1.6-0.4-2.9-1.2-4s-1.9-1.6-3.3-1.6s-2.5,0.5-3.3,1.6
		c-0.8,1.1-1.2,2.4-1.2,4V73z"/>
	<path d="M256.4,67.3l-1.1-0.1c-1,0-1.7,0.3-2.3,0.8c-0.6,0.5-1,1.3-1.3,2.2v9.4h-1.5V66h1.3l0.2,2.3v0.2c0.4-0.8,0.9-1.5,1.6-2
		s1.5-0.7,2.4-0.7c0.2,0,0.4,0,0.6,0c0.2,0,0.3,0.1,0.4,0.1L256.4,67.3z"/>
	<path d="M276.2,73.2c0,2-0.5,3.7-1.4,4.9s-2.2,1.8-3.8,1.8c-1,0-1.8-0.2-2.5-0.5c-0.7-0.4-1.3-0.9-1.8-1.6v7.1h-1.5V66h1.3l0.2,2.1
		c0.5-0.8,1-1.3,1.8-1.8c0.7-0.4,1.6-0.6,2.5-0.6c1.6,0,2.9,0.7,3.9,2c0.9,1.3,1.4,3.1,1.4,5.2V73.2z M274.7,72.9
		c0-1.7-0.3-3.2-1-4.3c-0.7-1.1-1.7-1.6-3-1.6c-1,0-1.8,0.2-2.5,0.7c-0.6,0.5-1.1,1.1-1.4,1.9v6.6c0.3,0.8,0.8,1.3,1.5,1.8
		c0.7,0.4,1.5,0.6,2.4,0.6c1.3,0,2.3-0.5,3-1.5c0.7-1,1-2.3,1-4V72.9z"/>
	<path d="M288.3,79.7c-0.1-0.5-0.2-0.9-0.2-1.2c0-0.3-0.1-0.7-0.1-1c-0.5,0.7-1.2,1.3-2,1.8c-0.8,0.5-1.8,0.7-2.8,0.7
		c-1.3,0-2.4-0.4-3.1-1.1c-0.7-0.7-1.1-1.7-1.1-2.8c0-1.3,0.5-2.3,1.6-3c1.1-0.8,2.6-1.1,4.4-1.1h3v-1.7c0-1-0.3-1.7-0.9-2.3
		c-0.6-0.6-1.5-0.8-2.6-0.8c-1.1,0-1.9,0.3-2.6,0.8c-0.7,0.5-1,1.2-1,1.9l-1.4,0l0-0.1c-0.1-1,0.4-1.9,1.4-2.7s2.2-1.2,3.7-1.2
		c1.5,0,2.7,0.4,3.6,1.2s1.4,1.9,1.4,3.3v6.7c0,0.5,0,0.9,0.1,1.4c0.1,0.5,0.1,0.9,0.3,1.4H288.3z M283.3,78.6c1.1,0,2-0.3,2.9-0.8
		s1.4-1.2,1.8-2V73h-3c-1.4,0-2.5,0.3-3.3,0.9c-0.8,0.6-1.2,1.3-1.2,2.2c0,0.7,0.3,1.3,0.8,1.8S282.4,78.6,283.3,78.6z"/>
	<path d="M299.8,67.3l-1.1-0.1c-1,0-1.7,0.3-2.3,0.8c-0.6,0.5-1,1.3-1.3,2.2v9.4h-1.5V66h1.3l0.2,2.3v0.2c0.4-0.8,0.9-1.5,1.6-2
		s1.5-0.7,2.4-0.7c0.2,0,0.4,0,0.6,0c0.2,0,0.3,0.1,0.4,0.1L299.8,67.3z"/>
	<path d="M303.6,66l0.1,2.3c0.4-0.8,1-1.4,1.8-1.9c0.7-0.4,1.6-0.7,2.6-0.7c1,0,1.9,0.3,2.6,0.8c0.7,0.5,1.2,1.3,1.5,2.3
		c0.4-1,1-1.7,1.8-2.3c0.8-0.5,1.7-0.8,2.8-0.8c1.5,0,2.6,0.5,3.4,1.5c0.8,1,1.2,2.5,1.2,4.5v8h-1.5v-8c0-1.7-0.3-2.9-0.9-3.6
		s-1.4-1-2.5-1c-1.2,0-2.1,0.4-2.7,1.1c-0.6,0.7-1,1.7-1.2,2.8c0,0.1,0,0.1,0,0.3c0,0.1,0,0.2,0,0.2v8.2H311v-8
		c0-1.7-0.3-2.8-0.9-3.6c-0.6-0.7-1.4-1.1-2.5-1.1c-1.1,0-1.9,0.3-2.5,0.8c-0.6,0.5-1.1,1.3-1.3,2.2v9.6h-1.5V66H303.6z"/>
	<path d="M333.9,79.7c-0.1-0.5-0.2-0.9-0.2-1.2c0-0.3-0.1-0.7-0.1-1c-0.5,0.7-1.2,1.3-2,1.8c-0.8,0.5-1.8,0.7-2.8,0.7
		c-1.3,0-2.4-0.4-3.1-1.1c-0.7-0.7-1.1-1.7-1.1-2.8c0-1.3,0.5-2.3,1.6-3c1.1-0.8,2.6-1.1,4.4-1.1h3v-1.7c0-1-0.3-1.7-0.9-2.3
		c-0.6-0.6-1.5-0.8-2.6-0.8c-1.1,0-1.9,0.3-2.6,0.8c-0.7,0.5-1,1.2-1,1.9l-1.4,0l0-0.1c-0.1-1,0.4-1.9,1.4-2.7s2.2-1.2,3.7-1.2
		c1.5,0,2.7,0.4,3.6,1.2c0.9,0.8,1.4,1.9,1.4,3.3v6.7c0,0.5,0,0.9,0.1,1.4c0.1,0.5,0.1,0.9,0.3,1.4H333.9z M329,78.6
		c1.1,0,2-0.3,2.9-0.8s1.4-1.2,1.8-2V73h-3c-1.4,0-2.5,0.3-3.3,0.9c-0.8,0.6-1.2,1.3-1.2,2.2c0,0.7,0.3,1.3,0.8,1.8
		S328.1,78.6,329,78.6z"/>
	<path d="M341.6,62.5V66h3v1.2h-3v8.9c0,0.9,0.2,1.5,0.5,1.9s0.8,0.6,1.3,0.6c0.2,0,0.5,0,0.7,0c0.2,0,0.5-0.1,0.8-0.1l0.2,1.1
		c-0.3,0.1-0.6,0.2-0.9,0.3s-0.7,0.1-1.1,0.1c-1,0-1.7-0.3-2.2-0.9s-0.8-1.6-0.8-2.9v-8.9h-2.4V66h2.4v-3.5H341.6z"/>
	<path d="M346.7,72.6c0-2,0.6-3.7,1.7-5c1.1-1.3,2.6-1.9,4.4-1.9c1.8,0,3.3,0.6,4.4,1.9s1.7,2.9,1.7,5V73c0,2-0.6,3.7-1.7,5
		c-1.1,1.3-2.6,1.9-4.4,1.9c-1.8,0-3.3-0.6-4.4-1.9c-1.1-1.3-1.7-2.9-1.7-5V72.6z M348.2,73c0,1.6,0.4,2.9,1.2,4
		c0.8,1.1,1.9,1.6,3.3,1.6c1.4,0,2.5-0.5,3.3-1.6s1.2-2.4,1.2-4v-0.4c0-1.6-0.4-2.9-1.2-4s-1.9-1.6-3.3-1.6c-1.4,0-2.5,0.5-3.3,1.6
		c-0.8,1.1-1.2,2.4-1.2,4V73z"/>
	<path d="M363.3,66l0.1,2.4c0.4-0.8,1-1.5,1.8-2c0.7-0.5,1.6-0.7,2.6-0.7c1.5,0,2.6,0.5,3.4,1.4c0.8,0.9,1.2,2.3,1.2,4.2v8.3h-1.5
		v-8.3c0-1.6-0.3-2.7-0.9-3.3c-0.6-0.7-1.4-1-2.5-1c-1.1,0-1.9,0.3-2.6,0.8s-1.2,1.3-1.4,2.2v9.6h-1.5V66H363.3z"/>
	<path d="M378,62.1h-1.5V60h1.5V62.1z M378,79.7h-1.5V66h1.5V79.7z"/>
	<path d="M387.3,78.6c1,0,1.9-0.3,2.7-0.9c0.8-0.6,1.2-1.4,1.2-2.4h1.3l0,0.1c0,1.3-0.5,2.3-1.5,3.2c-1.1,0.9-2.3,1.3-3.7,1.3
		c-1.9,0-3.3-0.6-4.3-1.9c-1-1.3-1.5-2.9-1.5-4.9v-0.5c0-2,0.5-3.6,1.5-4.9c1-1.3,2.5-1.9,4.3-1.9c1.5,0,2.7,0.4,3.7,1.3
		c1,0.9,1.5,2,1.4,3.5l0,0.1h-1.4c0-1.1-0.4-2-1.1-2.6c-0.7-0.7-1.6-1-2.7-1c-1.5,0-2.6,0.5-3.3,1.6s-1.1,2.4-1.1,4v0.5
		c0,1.6,0.3,2.9,1,4C384.7,78.1,385.8,78.6,387.3,78.6z"/>
	<path d="M403.8,76.2c0-0.6-0.3-1.2-0.8-1.7c-0.5-0.5-1.5-0.9-2.8-1.2c-1.6-0.4-2.8-0.8-3.6-1.4c-0.8-0.6-1.2-1.4-1.2-2.5
		c0-1,0.4-1.9,1.3-2.6c0.9-0.7,2-1.1,3.5-1.1c1.5,0,2.8,0.4,3.7,1.1c0.9,0.8,1.3,1.7,1.3,2.9l0,0.1h-1.4c0-0.7-0.3-1.4-1-2
		c-0.6-0.6-1.5-0.8-2.6-0.8c-1.1,0-1.9,0.2-2.5,0.7c-0.6,0.5-0.8,1-0.8,1.7c0,0.6,0.2,1.1,0.7,1.6c0.5,0.4,1.4,0.8,2.9,1.1
		c1.6,0.4,2.8,0.9,3.7,1.5c0.8,0.6,1.2,1.5,1.2,2.6c0,1.1-0.5,2.1-1.4,2.8c-0.9,0.7-2.1,1.1-3.7,1.1c-1.7,0-3-0.4-3.9-1.2
		S395,77,395,75.9l0-0.1h1.4c0.1,1,0.5,1.7,1.2,2.1s1.6,0.7,2.6,0.7c1.1,0,2-0.2,2.6-0.7C403.5,77.5,403.8,76.9,403.8,76.2z"/>
</g>
</svg>
